<svg xmlns="http://www.w3.org/2000/svg" xmlns:xlink="http://www.w3.org/1999/xlink" width="400" zoomAndPan="magnify" viewBox="0 0 300 299.999988" height="400" preserveAspectRatio="xMidYMid meet" version="1.0"><defs><clipPath id="7c87899bfb"><path d="M 0 0.289062 L 211.234375 0.289062 L 211.234375 211.523438 L 0 211.523438 Z M 0 0.289062 " clip-rule="nonzero"/></clipPath><clipPath id="d094af7ca3"><path d="M 171.121094 19.296875 L 297.863281 19.296875 L 297.863281 146.035156 L 171.121094 146.035156 Z M 171.121094 19.296875 " clip-rule="nonzero"/></clipPath><clipPath id="4a22ec43ef"><rect x="0" width="300" y="0" height="212"/></clipPath></defs><g transform="matrix(1, 0, 0, 1, 0, 56)"><g clip-path="url(#4a22ec43ef)"><g clip-path="url(#7c87899bfb)"><path fill="#000000" d="M 207.8125 211.507812 L 3.4375 211.507812 C 1.589844 211.507812 0.0898438 210.007812 0.0898438 208.15625 L 0.0898438 189.066406 C 0.0898438 157.300781 25.929688 131.460938 57.695312 131.460938 L 153.554688 131.460938 C 185.320312 131.460938 211.160156 157.300781 211.160156 189.066406 L 211.160156 208.15625 C 211.160156 210.007812 209.664062 211.507812 207.8125 211.507812 Z M 105.625 122.453125 C 71.945312 122.453125 44.542969 95.050781 44.542969 61.371094 C 44.542969 27.6875 71.945312 0.289062 105.625 0.289062 C 139.304688 0.289062 166.707031 27.6875 166.707031 61.371094 C 166.707031 95.050781 139.304688 122.453125 105.625 122.453125 Z M 105.625 122.453125 " fill-opacity="1" fill-rule="nonzero"/></g><g clip-path="url(#d094af7ca3)"><path fill="#000000" d="M 234.476562 19.285156 C 199.480469 19.285156 171.109375 47.65625 171.109375 82.652344 C 171.109375 117.648438 199.480469 146.015625 234.476562 146.015625 C 269.472656 146.015625 297.839844 117.648438 297.839844 82.652344 C 297.839844 47.65625 269.472656 19.285156 234.476562 19.285156 Z M 234.476562 133.34375 C 206.480469 133.34375 183.785156 110.644531 183.785156 82.652344 C 183.785156 54.65625 206.480469 31.960938 234.476562 31.960938 C 262.472656 31.960938 285.167969 54.65625 285.167969 82.652344 C 285.167969 110.644531 262.472656 133.34375 234.476562 133.34375 Z M 265.761719 97.546875 C 264.804688 100.089844 262.382812 101.660156 259.824219 101.660156 C 259.082031 101.660156 258.332031 101.527344 257.59375 101.253906 L 240.472656 94.835938 C 233.09375 92.066406 228.140625 84.914062 228.140625 77.039062 L 228.140625 50.96875 C 228.140625 47.472656 230.972656 44.632812 234.476562 44.632812 C 237.980469 44.632812 240.8125 47.472656 240.8125 50.96875 L 240.8125 77.039062 C 240.8125 79.667969 242.46875 82.050781 244.925781 82.972656 L 262.046875 89.394531 C 265.324219 90.617188 266.984375 94.273438 265.761719 97.546875 Z M 265.761719 97.546875 " fill-opacity="1" fill-rule="nonzero"/></g></g></g></svg>
