<svg xmlns="http://www.w3.org/2000/svg" xmlns:xlink="http://www.w3.org/1999/xlink" width="400" zoomAndPan="magnify" viewBox="0 0 300 299.999988" height="400" preserveAspectRatio="xMidYMid meet" version="1.0"><defs><clipPath id="621e9e62d3"><path d="M 33.183594 33.183594 L 131.433594 33.183594 L 131.433594 260.433594 L 33.183594 260.433594 Z M 33.183594 33.183594 " clip-rule="nonzero"/></clipPath><clipPath id="4103cb16ff"><path d="M 33.183594 33.183594 L 260.433594 33.183594 L 260.433594 76.683594 L 33.183594 76.683594 Z M 33.183594 33.183594 " clip-rule="nonzero"/></clipPath><clipPath id="e837425ad7"><path d="M 153 55 L 260 55 L 260 204 L 153 204 Z M 153 55 " clip-rule="nonzero"/></clipPath><clipPath id="0ba7b4b7ba"><path d="M 153.078125 148.578125 L 208.585938 55.0625 L 300.8125 109.804688 L 245.304688 203.320312 Z M 153.078125 148.578125 " clip-rule="nonzero"/></clipPath><clipPath id="9454c86fbc"><path d="M 152.351562 149.011719 L 208.242188 54.847656 L 301.113281 109.972656 L 245.222656 204.136719 Z M 152.351562 149.011719 " clip-rule="nonzero"/></clipPath><clipPath id="cebcecae16"><path d="M -9.285156 189.140625 L 106.324219 -5.632812 L 301.097656 109.980469 L 185.488281 304.75 Z M -9.285156 189.140625 " clip-rule="nonzero"/></clipPath><clipPath id="d5ac92888a"><path d="M 153.085938 33.183594 L 260.335938 33.183594 L 260.335938 147.933594 L 153.085938 147.933594 Z M 153.085938 33.183594 " clip-rule="nonzero"/></clipPath><clipPath id="736f36a203"><path d="M 35 104 L 235 104 L 235 261 L 35 261 Z M 35 104 " clip-rule="nonzero"/></clipPath><clipPath id="b25d8c79cf"><path d="M -6.589844 187.269531 L 42.875 104.996094 L 234.421875 220.15625 L 184.957031 302.429688 Z M -6.589844 187.269531 " clip-rule="nonzero"/></clipPath><clipPath id="6fc379894d"><path d="M -6.589844 187.269531 L 42.875 104.996094 L 234.421875 220.15625 L 184.957031 302.429688 Z M -6.589844 187.269531 " clip-rule="nonzero"/></clipPath><clipPath id="7d738c2cdf"><path d="M -6.589844 187.269531 L 108.570312 -4.277344 L 300.117188 110.882812 L 184.957031 302.429688 Z M -6.589844 187.269531 " clip-rule="nonzero"/></clipPath><clipPath id="e4db1c6aff"><path d="M 218.207031 163.039062 L 260.167969 163.039062 L 260.167969 260.394531 L 218.207031 260.394531 Z M 218.207031 163.039062 " clip-rule="nonzero"/></clipPath><clipPath id="9d37ca1dbc"><path d="M 194 182 L 242 182 L 242 218 L 194 218 Z M 194 182 " clip-rule="nonzero"/></clipPath><clipPath id="09f41c2661"><path d="M 221.84375 182.402344 L 241.753906 194.410156 L 214.25 240.007812 L 194.339844 228 Z M 221.84375 182.402344 " clip-rule="nonzero"/></clipPath><clipPath id="c3aaa47cbe"><path d="M 171.515625 68.664062 L 278.765625 133.359375 L 214.070312 240.605469 L 106.824219 175.910156 Z M 171.515625 68.664062 " clip-rule="nonzero"/></clipPath><clipPath id="14b90c4d34"><path d="M 171.515625 68.664062 L 278.765625 133.359375 L 214.070312 240.605469 L 106.824219 175.910156 Z M 171.515625 68.664062 " clip-rule="nonzero"/></clipPath><clipPath id="8e0e02bc0b"><path d="M 160 54 L 262 54 L 262 197 L 160 197 Z M 160 54 " clip-rule="nonzero"/></clipPath><clipPath id="428a0898b7"><path d="M 160.4375 143.78125 L 213.265625 54.78125 L 301.621094 107.226562 L 248.792969 196.226562 Z M 160.4375 143.78125 " clip-rule="nonzero"/></clipPath><clipPath id="abbb826614"><path d="M 5.90625 182.386719 L 115.777344 -2.710938 L 300.875 107.15625 L 191.007812 292.253906 Z M 5.90625 182.386719 " clip-rule="nonzero"/></clipPath><clipPath id="1e6a79594f"><path d="M 5.90625 182.386719 L 115.777344 -2.710938 L 300.875 107.15625 L 191.007812 292.253906 Z M 5.90625 182.386719 " clip-rule="nonzero"/></clipPath></defs><g clip-path="url(#621e9e62d3)"><path fill="#000000" d="M 260.433594 146.808594 C 260.433594 148.667969 260.386719 150.527344 260.296875 152.382812 C 260.203125 154.242188 260.066406 156.09375 259.886719 157.945312 C 259.703125 159.796875 259.476562 161.640625 259.203125 163.480469 C 258.929688 165.320312 258.613281 167.152344 258.25 168.976562 C 257.886719 170.800781 257.480469 172.613281 257.027344 174.417969 C 256.574219 176.21875 256.082031 178.011719 255.539062 179.792969 C 255 181.570312 254.417969 183.335938 253.789062 185.085938 C 253.164062 186.839844 252.496094 188.574219 251.785156 190.289062 C 251.070312 192.007812 250.320312 193.707031 249.523438 195.390625 C 248.730469 197.070312 247.894531 198.730469 247.015625 200.371094 C 246.140625 202.011719 245.222656 203.628906 244.265625 205.222656 C 243.3125 206.816406 242.316406 208.386719 241.285156 209.933594 C 240.25 211.480469 239.179688 213 238.074219 214.496094 C 236.964844 215.988281 235.820312 217.453125 234.640625 218.890625 C 233.460938 220.328125 232.246094 221.734375 231 223.113281 C 229.75 224.492188 228.46875 225.839844 227.152344 227.152344 C 225.839844 228.46875 224.492188 229.75 223.113281 231 C 221.734375 232.246094 220.328125 233.460938 218.890625 234.640625 C 217.453125 235.820312 215.988281 236.964844 214.496094 238.074219 C 213 239.179688 211.480469 240.25 209.933594 241.285156 C 208.386719 242.316406 206.816406 243.3125 205.222656 244.265625 C 203.628906 245.222656 202.011719 246.140625 200.371094 247.015625 C 198.730469 247.894531 197.070312 248.730469 195.390625 249.523438 C 193.707031 250.320312 192.007812 251.070312 190.289062 251.785156 C 188.574219 252.496094 186.839844 253.164062 185.085938 253.789062 C 183.335938 254.417969 181.570312 255 179.792969 255.539062 C 178.011719 256.082031 176.21875 256.574219 174.417969 257.027344 C 172.613281 257.480469 170.800781 257.886719 168.976562 258.25 C 167.152344 258.613281 165.320312 258.929688 163.480469 259.203125 C 161.640625 259.476562 159.796875 259.703125 157.945312 259.886719 C 156.09375 260.066406 154.242188 260.203125 152.382812 260.296875 C 150.527344 260.386719 148.667969 260.433594 146.808594 260.433594 C 144.949219 260.433594 143.089844 260.386719 141.234375 260.296875 C 139.375 260.203125 137.519531 260.066406 135.671875 259.886719 C 133.820312 259.703125 131.976562 259.476562 130.136719 259.203125 C 128.296875 258.929688 126.464844 258.613281 124.640625 258.25 C 122.816406 257.886719 121.003906 257.480469 119.199219 257.027344 C 117.394531 256.574219 115.605469 256.082031 113.824219 255.539062 C 112.046875 255 110.28125 254.417969 108.527344 253.789062 C 106.777344 253.164062 105.042969 252.496094 103.324219 251.785156 C 101.609375 251.070312 99.90625 250.320312 98.226562 249.523438 C 96.546875 248.730469 94.886719 247.894531 93.246094 247.015625 C 91.605469 246.140625 89.988281 245.222656 88.394531 244.265625 C 86.796875 243.3125 85.226562 242.316406 83.679688 241.285156 C 82.136719 240.25 80.617188 239.179688 79.121094 238.074219 C 77.628906 236.964844 76.164062 235.820312 74.726562 234.640625 C 73.289062 233.460938 71.878906 232.246094 70.503906 231 C 69.125 229.75 67.777344 228.46875 66.464844 227.152344 C 65.148438 225.839844 63.867188 224.492188 62.617188 223.113281 C 61.367188 221.734375 60.15625 220.328125 58.976562 218.890625 C 57.796875 217.453125 56.652344 215.988281 55.542969 214.496094 C 54.4375 213 53.367188 211.480469 52.332031 209.933594 C 51.300781 208.386719 50.304688 206.816406 49.347656 205.222656 C 48.394531 203.628906 47.476562 202.011719 46.601562 200.371094 C 45.722656 198.730469 44.886719 197.070312 44.09375 195.390625 C 43.296875 193.707031 42.542969 192.007812 41.832031 190.289062 C 41.121094 188.574219 40.453125 186.839844 39.824219 185.085938 C 39.199219 183.335938 38.617188 181.570312 38.074219 179.792969 C 37.535156 178.011719 37.039062 176.21875 36.589844 174.417969 C 36.136719 172.613281 35.730469 170.800781 35.367188 168.976562 C 35.003906 167.152344 34.6875 165.320312 34.414062 163.480469 C 34.140625 161.640625 33.914062 159.796875 33.730469 157.945312 C 33.546875 156.09375 33.410156 154.242188 33.320312 152.382812 C 33.230469 150.527344 33.183594 148.667969 33.183594 146.808594 C 33.183594 144.949219 33.230469 143.089844 33.320312 141.234375 C 33.410156 139.375 33.546875 137.523438 33.730469 135.671875 C 33.914062 133.820312 34.140625 131.976562 34.414062 130.136719 C 34.6875 128.296875 35.003906 126.464844 35.367188 124.640625 C 35.730469 122.816406 36.136719 121.003906 36.589844 119.199219 C 37.039062 117.394531 37.535156 115.605469 38.074219 113.824219 C 38.617188 112.046875 39.199219 110.28125 39.824219 108.527344 C 40.453125 106.777344 41.121094 105.042969 41.832031 103.324219 C 42.542969 101.609375 43.296875 99.90625 44.09375 98.226562 C 44.886719 96.546875 45.722656 94.886719 46.601562 93.246094 C 47.476562 91.605469 48.394531 89.988281 49.347656 88.394531 C 50.304688 86.796875 51.300781 85.226562 52.332031 83.679688 C 53.367188 82.136719 54.4375 80.617188 55.542969 79.121094 C 56.652344 77.628906 57.796875 76.164062 58.976562 74.726562 C 60.15625 73.289062 61.367188 71.878906 62.617188 70.503906 C 63.867188 69.125 65.148438 67.777344 66.464844 66.464844 C 67.777344 65.148438 69.125 63.867188 70.503906 62.617188 C 71.878906 61.367188 73.289062 60.15625 74.726562 58.976562 C 76.164062 57.796875 77.628906 56.652344 79.121094 55.542969 C 80.617188 54.4375 82.136719 53.367188 83.679688 52.332031 C 85.226562 51.300781 86.796875 50.304688 88.394531 49.347656 C 89.988281 48.394531 91.605469 47.476562 93.246094 46.601562 C 94.886719 45.722656 96.546875 44.886719 98.226562 44.09375 C 99.90625 43.296875 101.609375 42.542969 103.324219 41.832031 C 105.042969 41.121094 106.777344 40.453125 108.527344 39.824219 C 110.28125 39.199219 112.046875 38.617188 113.824219 38.074219 C 115.605469 37.535156 117.394531 37.039062 119.199219 36.589844 C 121.003906 36.136719 122.816406 35.730469 124.640625 35.367188 C 126.464844 35.003906 128.296875 34.6875 130.136719 34.414062 C 131.976562 34.140625 133.820312 33.914062 135.671875 33.730469 C 137.519531 33.546875 139.375 33.410156 141.234375 33.320312 C 143.089844 33.230469 144.949219 33.183594 146.808594 33.183594 C 148.667969 33.183594 150.527344 33.230469 152.382812 33.320312 C 154.242188 33.410156 156.09375 33.546875 157.945312 33.730469 C 159.796875 33.914062 161.640625 34.140625 163.480469 34.414062 C 165.320312 34.6875 167.152344 35.003906 168.976562 35.367188 C 170.800781 35.730469 172.613281 36.136719 174.417969 36.589844 C 176.21875 37.039062 178.011719 37.535156 179.792969 38.074219 C 181.570312 38.617188 183.335938 39.199219 185.085938 39.824219 C 186.839844 40.453125 188.574219 41.121094 190.289062 41.832031 C 192.007812 42.542969 193.707031 43.296875 195.390625 44.09375 C 197.070312 44.886719 198.730469 45.722656 200.371094 46.601562 C 202.011719 47.476562 203.628906 48.394531 205.222656 49.347656 C 206.816406 50.304688 208.386719 51.300781 209.933594 52.332031 C 211.480469 53.367188 213 54.4375 214.496094 55.542969 C 215.988281 56.652344 217.453125 57.796875 218.890625 58.976562 C 220.328125 60.15625 221.734375 61.367188 223.113281 62.617188 C 224.492188 63.867188 225.839844 65.148438 227.152344 66.464844 C 228.46875 67.777344 229.75 69.125 231 70.503906 C 232.246094 71.878906 233.460938 73.289062 234.640625 74.726562 C 235.820312 76.164062 236.964844 77.628906 238.074219 79.121094 C 239.179688 80.617188 240.25 82.136719 241.285156 83.679688 C 242.316406 85.226562 243.3125 86.796875 244.265625 88.394531 C 245.222656 89.988281 246.140625 91.605469 247.015625 93.246094 C 247.894531 94.886719 248.730469 96.546875 249.523438 98.226562 C 250.320312 99.90625 251.070312 101.609375 251.785156 103.324219 C 252.496094 105.042969 253.164062 106.777344 253.789062 108.527344 C 254.417969 110.28125 255 112.046875 255.539062 113.824219 C 256.082031 115.605469 256.574219 117.394531 257.027344 119.199219 C 257.480469 121.003906 257.886719 122.816406 258.25 124.640625 C 258.613281 126.464844 258.929688 128.296875 259.203125 130.136719 C 259.476562 131.976562 259.703125 133.820312 259.886719 135.671875 C 260.066406 137.523438 260.203125 139.375 260.296875 141.234375 C 260.386719 143.089844 260.433594 144.949219 260.433594 146.808594 Z M 260.433594 146.808594 " fill-opacity="1" fill-rule="nonzero"/></g><g clip-path="url(#4103cb16ff)"><path fill="#000000" d="M 260.433594 146.808594 C 260.433594 148.667969 260.386719 150.527344 260.296875 152.382812 C 260.203125 154.242188 260.066406 156.09375 259.886719 157.945312 C 259.703125 159.796875 259.476562 161.640625 259.203125 163.480469 C 258.929688 165.320312 258.613281 167.152344 258.25 168.976562 C 257.886719 170.800781 257.480469 172.613281 257.027344 174.417969 C 256.574219 176.21875 256.082031 178.011719 255.539062 179.792969 C 255 181.570312 254.417969 183.335938 253.789062 185.085938 C 253.164062 186.839844 252.496094 188.574219 251.785156 190.289062 C 251.070312 192.007812 250.320312 193.707031 249.523438 195.390625 C 248.730469 197.070312 247.894531 198.730469 247.015625 200.371094 C 246.140625 202.011719 245.222656 203.628906 244.265625 205.222656 C 243.3125 206.816406 242.316406 208.386719 241.285156 209.933594 C 240.25 211.480469 239.179688 213 238.074219 214.496094 C 236.964844 215.988281 235.820312 217.453125 234.640625 218.890625 C 233.460938 220.328125 232.246094 221.734375 231 223.113281 C 229.75 224.492188 228.46875 225.839844 227.152344 227.152344 C 225.839844 228.46875 224.492188 229.75 223.113281 231 C 221.734375 232.246094 220.328125 233.460938 218.890625 234.640625 C 217.453125 235.820312 215.988281 236.964844 214.496094 238.074219 C 213 239.179688 211.480469 240.25 209.933594 241.285156 C 208.386719 242.316406 206.816406 243.3125 205.222656 244.265625 C 203.628906 245.222656 202.011719 246.140625 200.371094 247.015625 C 198.730469 247.894531 197.070312 248.730469 195.390625 249.523438 C 193.707031 250.320312 192.007812 251.070312 190.289062 251.785156 C 188.574219 252.496094 186.839844 253.164062 185.085938 253.789062 C 183.335938 254.417969 181.570312 255 179.792969 255.539062 C 178.011719 256.082031 176.21875 256.574219 174.417969 257.027344 C 172.613281 257.480469 170.800781 257.886719 168.976562 258.25 C 167.152344 258.613281 165.320312 258.929688 163.480469 259.203125 C 161.640625 259.476562 159.796875 259.703125 157.945312 259.886719 C 156.09375 260.066406 154.242188 260.203125 152.382812 260.296875 C 150.527344 260.386719 148.667969 260.433594 146.808594 260.433594 C 144.949219 260.433594 143.089844 260.386719 141.234375 260.296875 C 139.375 260.203125 137.523438 260.066406 135.671875 259.886719 C 133.820312 259.703125 131.976562 259.476562 130.136719 259.203125 C 128.296875 258.929688 126.464844 258.613281 124.640625 258.25 C 122.816406 257.886719 121.003906 257.480469 119.199219 257.027344 C 117.394531 256.574219 115.605469 256.082031 113.824219 255.539062 C 112.046875 255 110.28125 254.417969 108.527344 253.789062 C 106.777344 253.164062 105.042969 252.496094 103.324219 251.785156 C 101.609375 251.070312 99.90625 250.320312 98.226562 249.523438 C 96.546875 248.730469 94.886719 247.894531 93.246094 247.015625 C 91.605469 246.140625 89.988281 245.222656 88.394531 244.265625 C 86.796875 243.3125 85.226562 242.316406 83.679688 241.285156 C 82.136719 240.25 80.617188 239.179688 79.121094 238.074219 C 77.628906 236.964844 76.164062 235.820312 74.726562 234.640625 C 73.289062 233.460938 71.878906 232.246094 70.503906 231 C 69.125 229.75 67.777344 228.46875 66.464844 227.152344 C 65.148438 225.839844 63.867188 224.492188 62.617188 223.113281 C 61.367188 221.734375 60.15625 220.328125 58.976562 218.890625 C 57.796875 217.453125 56.652344 215.988281 55.542969 214.496094 C 54.4375 213 53.367188 211.480469 52.332031 209.933594 C 51.300781 208.386719 50.304688 206.816406 49.347656 205.222656 C 48.394531 203.628906 47.476562 202.011719 46.601562 200.371094 C 45.722656 198.730469 44.886719 197.070312 44.09375 195.390625 C 43.296875 193.707031 42.542969 192.007812 41.832031 190.289062 C 41.121094 188.574219 40.453125 186.839844 39.824219 185.085938 C 39.199219 183.335938 38.617188 181.570312 38.074219 179.792969 C 37.535156 178.011719 37.039062 176.21875 36.589844 174.417969 C 36.136719 172.613281 35.730469 170.800781 35.367188 168.976562 C 35.003906 167.152344 34.6875 165.320312 34.414062 163.480469 C 34.140625 161.640625 33.914062 159.796875 33.730469 157.945312 C 33.546875 156.09375 33.410156 154.242188 33.320312 152.382812 C 33.230469 150.527344 33.183594 148.667969 33.183594 146.808594 C 33.183594 144.949219 33.230469 143.089844 33.320312 141.234375 C 33.410156 139.375 33.546875 137.523438 33.730469 135.671875 C 33.914062 133.820312 34.140625 131.976562 34.414062 130.136719 C 34.6875 128.296875 35.003906 126.464844 35.367188 124.640625 C 35.730469 122.816406 36.136719 121.003906 36.589844 119.199219 C 37.039062 117.394531 37.535156 115.605469 38.074219 113.824219 C 38.617188 112.046875 39.199219 110.28125 39.824219 108.527344 C 40.453125 106.777344 41.121094 105.042969 41.832031 103.324219 C 42.542969 101.609375 43.296875 99.90625 44.09375 98.226562 C 44.886719 96.546875 45.722656 94.886719 46.601562 93.246094 C 47.476562 91.605469 48.394531 89.988281 49.347656 88.394531 C 50.304688 86.796875 51.300781 85.226562 52.332031 83.679688 C 53.367188 82.136719 54.4375 80.617188 55.542969 79.121094 C 56.652344 77.628906 57.796875 76.164062 58.976562 74.726562 C 60.15625 73.289062 61.367188 71.878906 62.617188 70.503906 C 63.867188 69.125 65.148438 67.777344 66.464844 66.464844 C 67.777344 65.148438 69.125 63.867188 70.503906 62.617188 C 71.878906 61.367188 73.289062 60.15625 74.726562 58.976562 C 76.164062 57.796875 77.628906 56.652344 79.121094 55.542969 C 80.617188 54.4375 82.136719 53.367188 83.679688 52.332031 C 85.226562 51.300781 86.796875 50.304688 88.394531 49.347656 C 89.988281 48.394531 91.605469 47.476562 93.246094 46.601562 C 94.886719 45.722656 96.546875 44.886719 98.226562 44.09375 C 99.90625 43.296875 101.609375 42.542969 103.324219 41.832031 C 105.042969 41.121094 106.777344 40.453125 108.527344 39.824219 C 110.28125 39.199219 112.046875 38.617188 113.824219 38.074219 C 115.605469 37.535156 117.394531 37.039062 119.199219 36.589844 C 121.003906 36.136719 122.816406 35.730469 124.640625 35.367188 C 126.464844 35.003906 128.296875 34.6875 130.136719 34.414062 C 131.976562 34.140625 133.820312 33.914062 135.671875 33.730469 C 137.523438 33.546875 139.375 33.410156 141.234375 33.320312 C 143.089844 33.230469 144.949219 33.183594 146.808594 33.183594 C 148.667969 33.183594 150.527344 33.230469 152.382812 33.320312 C 154.242188 33.410156 156.09375 33.546875 157.945312 33.730469 C 159.796875 33.914062 161.640625 34.140625 163.480469 34.414062 C 165.320312 34.6875 167.152344 35.003906 168.976562 35.367188 C 170.800781 35.730469 172.613281 36.136719 174.417969 36.589844 C 176.21875 37.039062 178.011719 37.535156 179.792969 38.074219 C 181.570312 38.617188 183.335938 39.199219 185.085938 39.824219 C 186.839844 40.453125 188.574219 41.121094 190.289062 41.832031 C 192.007812 42.542969 193.707031 43.296875 195.390625 44.09375 C 197.070312 44.886719 198.730469 45.722656 200.371094 46.601562 C 202.011719 47.476562 203.628906 48.394531 205.222656 49.347656 C 206.816406 50.304688 208.386719 51.300781 209.933594 52.332031 C 211.480469 53.367188 213 54.4375 214.496094 55.542969 C 215.988281 56.652344 217.453125 57.796875 218.890625 58.976562 C 220.328125 60.15625 221.734375 61.367188 223.113281 62.617188 C 224.492188 63.867188 225.839844 65.148438 227.152344 66.464844 C 228.46875 67.777344 229.75 69.125 231 70.503906 C 232.246094 71.878906 233.460938 73.289062 234.640625 74.726562 C 235.820312 76.164062 236.964844 77.628906 238.074219 79.121094 C 239.179688 80.617188 240.25 82.136719 241.285156 83.679688 C 242.316406 85.226562 243.3125 86.796875 244.265625 88.394531 C 245.222656 89.988281 246.140625 91.605469 247.015625 93.246094 C 247.894531 94.886719 248.730469 96.546875 249.523438 98.226562 C 250.320312 99.90625 251.070312 101.609375 251.785156 103.324219 C 252.496094 105.042969 253.164062 106.777344 253.789062 108.527344 C 254.417969 110.28125 255 112.046875 255.539062 113.824219 C 256.082031 115.605469 256.574219 117.394531 257.027344 119.199219 C 257.480469 121.003906 257.886719 122.816406 258.25 124.640625 C 258.613281 126.464844 258.929688 128.296875 259.203125 130.136719 C 259.476562 131.976562 259.703125 133.820312 259.886719 135.671875 C 260.066406 137.523438 260.203125 139.375 260.296875 141.234375 C 260.386719 143.089844 260.433594 144.949219 260.433594 146.808594 Z M 260.433594 146.808594 " fill-opacity="1" fill-rule="nonzero"/></g><g clip-path="url(#e837425ad7)"><g clip-path="url(#0ba7b4b7ba)"><g clip-path="url(#9454c86fbc)"><g clip-path="url(#cebcecae16)"><path fill="#000000" d="M 203.710938 52.171875 C 205.304688 53.121094 206.875 54.105469 208.421875 55.128906 C 209.964844 56.152344 211.484375 57.210938 212.980469 58.308594 C 214.472656 59.40625 215.9375 60.539062 217.375 61.710938 C 218.8125 62.878906 220.222656 64.082031 221.601562 65.320312 C 222.980469 66.5625 224.328125 67.832031 225.640625 69.136719 C 226.957031 70.441406 228.242188 71.777344 229.492188 73.148438 C 230.742188 74.515625 231.960938 75.914062 233.140625 77.339844 C 234.324219 78.769531 235.46875 80.222656 236.578125 81.707031 C 237.691406 83.191406 238.761719 84.703125 239.800781 86.238281 C 240.835938 87.773438 241.835938 89.335938 242.792969 90.921875 C 243.753906 92.507812 244.671875 94.117188 245.554688 95.746094 C 246.433594 97.378906 247.273438 99.027344 248.074219 100.699219 C 248.875 102.375 249.632812 104.0625 250.347656 105.773438 C 251.066406 107.480469 251.738281 109.207031 252.371094 110.949219 C 253.003906 112.691406 253.59375 114.449219 254.136719 116.222656 C 254.683594 117.992188 255.1875 119.777344 255.644531 121.570312 C 256.101562 123.367188 256.515625 125.175781 256.882812 126.988281 C 257.253906 128.804688 257.578125 130.628906 257.859375 132.460938 C 258.136719 134.296875 258.371094 136.132812 258.5625 137.976562 C 258.753906 139.820312 258.894531 141.667969 258.996094 143.519531 C 259.09375 145.367188 259.148438 147.222656 259.15625 149.074219 C 259.164062 150.929688 259.125 152.78125 259.042969 154.632812 C 258.960938 156.484375 258.832031 158.332031 258.65625 160.175781 C 258.484375 162.023438 258.265625 163.863281 258 165.695312 C 257.738281 167.53125 257.429688 169.359375 257.074219 171.175781 C 256.71875 172.996094 256.320312 174.804688 255.878906 176.605469 C 255.4375 178.40625 254.949219 180.195312 254.421875 181.96875 C 253.890625 183.746094 253.316406 185.507812 252.699219 187.253906 C 252.082031 189.003906 251.421875 190.734375 250.722656 192.449219 C 250.019531 194.164062 249.273438 195.863281 248.488281 197.542969 C 247.703125 199.21875 246.878906 200.878906 246.011719 202.515625 C 245.144531 204.15625 244.238281 205.769531 243.292969 207.363281 C 242.347656 208.960938 241.363281 210.527344 240.339844 212.074219 C 239.316406 213.621094 238.257812 215.140625 237.160156 216.632812 C 236.0625 218.125 234.925781 219.589844 233.757812 221.027344 C 232.585938 222.46875 231.382812 223.875 230.144531 225.253906 C 228.90625 226.632812 227.632812 227.980469 226.328125 229.296875 C 225.023438 230.613281 223.6875 231.894531 222.320312 233.144531 C 220.953125 234.398438 219.554688 235.613281 218.125 236.792969 C 216.699219 237.976562 215.242188 239.121094 213.757812 240.234375 C 212.273438 241.34375 210.765625 242.417969 209.226562 243.453125 C 207.691406 244.488281 206.128906 245.488281 204.542969 246.449219 C 202.960938 247.40625 201.351562 248.328125 199.71875 249.207031 C 198.089844 250.089844 196.4375 250.929688 194.765625 251.726562 C 193.09375 252.527344 191.402344 253.285156 189.695312 254.003906 C 187.984375 254.71875 186.257812 255.394531 184.515625 256.023438 C 182.773438 256.65625 181.015625 257.246094 179.246094 257.792969 C 177.472656 258.335938 175.691406 258.839844 173.894531 259.296875 C 172.097656 259.753906 170.292969 260.167969 168.476562 260.539062 C 166.660156 260.90625 164.835938 261.230469 163.003906 261.511719 C 161.171875 261.792969 159.332031 262.027344 157.488281 262.214844 C 155.644531 262.40625 153.800781 262.550781 151.949219 262.648438 C 150.097656 262.746094 148.246094 262.800781 146.390625 262.808594 C 144.539062 262.816406 142.6875 262.78125 140.835938 262.695312 C 138.984375 262.613281 137.132812 262.484375 135.289062 262.3125 C 133.445312 262.136719 131.605469 261.917969 129.769531 261.65625 C 127.933594 261.390625 126.109375 261.082031 124.289062 260.726562 C 122.46875 260.375 120.660156 259.976562 118.859375 259.53125 C 117.0625 259.089844 115.273438 258.605469 113.496094 258.074219 C 111.722656 257.542969 109.960938 256.96875 108.210938 256.351562 C 106.464844 255.734375 104.730469 255.078125 103.015625 254.375 C 101.300781 253.671875 99.605469 252.929688 97.925781 252.144531 C 96.246094 251.359375 94.589844 250.53125 92.949219 249.664062 C 91.3125 248.800781 89.695312 247.894531 88.101562 246.945312 C 86.507812 246 84.9375 245.015625 83.394531 243.992188 C 81.847656 242.96875 80.328125 241.910156 78.835938 240.8125 C 77.339844 239.714844 75.875 238.582031 74.4375 237.410156 C 73 236.242188 71.589844 235.035156 70.214844 233.796875 C 68.835938 232.558594 67.488281 231.289062 66.171875 229.984375 C 64.855469 228.675781 63.570312 227.339844 62.320312 225.972656 C 61.070312 224.605469 59.855469 223.207031 58.671875 221.78125 C 57.488281 220.351562 56.34375 218.894531 55.234375 217.414062 C 54.121094 215.929688 53.050781 214.417969 52.011719 212.882812 C 50.976562 211.34375 49.980469 209.785156 49.019531 208.199219 C 48.058594 206.613281 47.140625 205.003906 46.257812 203.375 C 45.378906 201.742188 44.539062 200.089844 43.738281 198.417969 C 42.9375 196.746094 42.179688 195.054688 41.464844 193.347656 C 40.746094 191.636719 40.074219 189.910156 39.441406 188.167969 C 38.808594 186.425781 38.21875 184.671875 37.675781 182.898438 C 37.128906 181.128906 36.628906 179.34375 36.167969 177.546875 C 35.710938 175.753906 35.296875 173.945312 34.929688 172.128906 C 34.558594 170.3125 34.234375 168.488281 33.953125 166.65625 C 33.675781 164.824219 33.441406 162.988281 33.25 161.144531 C 33.0625 159.300781 32.917969 157.453125 32.816406 155.601562 C 32.71875 153.75 32.664062 151.898438 32.65625 150.046875 C 32.648438 148.191406 32.6875 146.339844 32.769531 144.488281 C 32.851562 142.636719 32.980469 140.789062 33.15625 138.941406 C 33.328125 137.097656 33.546875 135.257812 33.8125 133.421875 C 34.078125 131.589844 34.386719 129.761719 34.738281 127.941406 C 35.09375 126.125 35.492188 124.3125 35.933594 122.515625 C 36.375 120.714844 36.863281 118.925781 37.394531 117.148438 C 37.921875 115.375 38.496094 113.613281 39.113281 111.863281 C 39.730469 110.117188 40.390625 108.386719 41.09375 106.671875 C 41.792969 104.953125 42.539062 103.257812 43.324219 101.578125 C 44.109375 99.898438 44.933594 98.242188 45.800781 96.601562 C 46.667969 94.964844 47.574219 93.347656 48.519531 91.753906 C 49.464844 90.160156 50.449219 88.589844 51.472656 87.046875 C 52.496094 85.5 53.558594 83.980469 54.65625 82.488281 C 55.753906 80.996094 56.886719 79.527344 58.054688 78.089844 C 59.226562 76.652344 60.429688 75.246094 61.667969 73.867188 C 62.90625 72.488281 64.179688 71.140625 65.484375 69.824219 C 66.789062 68.507812 68.125 67.226562 69.492188 65.972656 C 70.863281 64.722656 72.257812 63.507812 73.6875 62.324219 C 75.113281 61.144531 76.570312 59.996094 78.054688 58.886719 C 79.539062 57.777344 81.046875 56.703125 82.585938 55.667969 C 84.121094 54.628906 85.683594 53.632812 87.269531 52.671875 C 88.855469 51.714844 90.460938 50.792969 92.09375 49.914062 C 93.722656 49.03125 95.375 48.191406 97.046875 47.390625 C 98.71875 46.59375 100.410156 45.835938 102.121094 45.117188 C 103.828125 44.402344 105.554688 43.726562 107.296875 43.09375 C 109.039062 42.464844 110.796875 41.875 112.566406 41.328125 C 114.339844 40.78125 116.121094 40.28125 117.917969 39.824219 C 119.714844 39.363281 121.519531 38.953125 123.335938 38.582031 C 125.152344 38.210938 126.976562 37.886719 128.808594 37.609375 C 130.640625 37.328125 132.480469 37.09375 134.324219 36.902344 C 136.167969 36.714844 138.015625 36.570312 139.863281 36.472656 C 141.714844 36.371094 143.566406 36.320312 145.421875 36.3125 C 147.273438 36.304688 149.128906 36.339844 150.980469 36.421875 C 152.832031 36.507812 154.679688 36.636719 156.523438 36.808594 C 158.367188 36.984375 160.207031 37.203125 162.042969 37.464844 C 163.878906 37.730469 165.703125 38.039062 167.523438 38.390625 C 169.34375 38.746094 171.152344 39.144531 172.953125 39.585938 C 174.753906 40.03125 176.539062 40.515625 178.316406 41.046875 C 180.09375 41.578125 181.855469 42.152344 183.601562 42.769531 C 185.347656 43.382812 187.082031 44.042969 188.796875 44.746094 C 190.511719 45.449219 192.210938 46.191406 193.886719 46.976562 C 195.566406 47.761719 197.226562 48.589844 198.863281 49.453125 C 200.5 50.320312 202.117188 51.226562 203.710938 52.171875 Z M 203.710938 52.171875 " fill-opacity="1" fill-rule="nonzero"/></g></g></g></g><g clip-path="url(#d5ac92888a)"><path fill="#000000" d="M 260.394531 146.808594 C 260.394531 148.667969 260.351562 150.527344 260.257812 152.382812 C 260.167969 154.242188 260.03125 156.09375 259.847656 157.945312 C 259.667969 159.796875 259.4375 161.640625 259.167969 163.480469 C 258.894531 165.320312 258.574219 167.152344 258.210938 168.976562 C 257.851562 170.800781 257.441406 172.613281 256.992188 174.417969 C 256.539062 176.21875 256.042969 178.011719 255.503906 179.792969 C 254.964844 181.570312 254.378906 183.335938 253.753906 185.085938 C 253.128906 186.839844 252.457031 188.574219 251.746094 190.289062 C 251.035156 192.007812 250.28125 193.707031 249.488281 195.390625 C 248.691406 197.070312 247.855469 198.730469 246.980469 200.371094 C 246.101562 202.011719 245.1875 203.628906 244.230469 205.222656 C 243.273438 206.816406 242.28125 208.386719 241.246094 209.933594 C 240.214844 211.480469 239.144531 213 238.035156 214.496094 C 236.929688 215.988281 235.785156 217.453125 234.605469 218.890625 C 233.425781 220.328125 232.210938 221.734375 230.960938 223.113281 C 229.710938 224.492188 228.429688 225.839844 227.117188 227.152344 C 225.800781 228.46875 224.453125 229.75 223.078125 231 C 221.699219 232.246094 220.292969 233.460938 218.855469 234.640625 C 217.417969 235.820312 215.949219 236.964844 214.457031 238.074219 C 212.964844 239.179688 211.445312 240.25 209.898438 241.285156 C 208.351562 242.316406 206.78125 243.3125 205.1875 244.265625 C 203.589844 245.222656 201.972656 246.140625 200.332031 247.015625 C 198.695312 247.894531 197.03125 248.730469 195.351562 249.523438 C 193.671875 250.320312 191.972656 251.070312 190.253906 251.785156 C 188.535156 252.496094 186.800781 253.164062 185.050781 253.789062 C 183.300781 254.417969 181.535156 255 179.753906 255.539062 C 177.976562 256.082031 176.183594 256.574219 174.378906 257.027344 C 172.574219 257.480469 170.761719 257.886719 168.9375 258.25 C 167.113281 258.613281 165.28125 258.929688 163.445312 259.203125 C 161.605469 259.476562 159.757812 259.703125 157.910156 259.886719 C 156.058594 260.066406 154.203125 260.203125 152.347656 260.296875 C 150.488281 260.386719 148.628906 260.433594 146.769531 260.433594 C 144.910156 260.433594 143.054688 260.386719 141.195312 260.296875 C 139.339844 260.203125 137.484375 260.066406 135.632812 259.886719 C 133.785156 259.703125 131.9375 259.476562 130.097656 259.203125 C 128.257812 258.929688 126.429688 258.613281 124.605469 258.25 C 122.78125 257.886719 120.964844 257.480469 119.164062 257.027344 C 117.359375 256.574219 115.566406 256.082031 113.789062 255.539062 C 112.007812 255 110.242188 254.417969 108.492188 253.789062 C 106.742188 253.164062 105.007812 252.496094 103.289062 251.785156 C 101.570312 251.070312 99.871094 250.320312 98.191406 249.523438 C 96.507812 248.730469 94.847656 247.894531 93.207031 247.015625 C 91.570312 246.140625 89.953125 245.222656 88.355469 244.265625 C 86.761719 243.3125 85.191406 242.316406 83.644531 241.285156 C 82.097656 240.25 80.578125 239.179688 79.085938 238.074219 C 77.589844 236.964844 76.125 235.820312 74.6875 234.640625 C 73.25 233.460938 71.84375 232.246094 70.464844 231 C 69.085938 229.75 67.742188 228.46875 66.425781 227.152344 C 65.109375 225.839844 63.828125 224.492188 62.582031 223.113281 C 61.332031 221.734375 60.117188 220.328125 58.9375 218.890625 C 57.757812 217.453125 56.613281 215.988281 55.507812 214.496094 C 54.398438 213 53.328125 211.480469 52.296875 209.933594 C 51.261719 208.386719 50.269531 206.816406 49.3125 205.222656 C 48.355469 203.628906 47.4375 202.011719 46.5625 200.371094 C 45.6875 198.730469 44.851562 197.070312 44.054688 195.390625 C 43.261719 193.707031 42.507812 192.007812 41.796875 190.289062 C 41.082031 188.574219 40.414062 186.839844 39.789062 185.085938 C 39.160156 183.335938 38.578125 181.570312 38.039062 179.792969 C 37.5 178.011719 37.003906 176.21875 36.550781 174.417969 C 36.097656 172.613281 35.691406 170.800781 35.328125 168.976562 C 34.964844 167.152344 34.648438 165.320312 34.375 163.480469 C 34.101562 161.640625 33.875 159.796875 33.691406 157.945312 C 33.511719 156.09375 33.375 154.242188 33.28125 152.382812 C 33.191406 150.527344 33.144531 148.667969 33.144531 146.808594 C 33.144531 144.949219 33.191406 143.089844 33.28125 141.234375 C 33.375 139.375 33.511719 137.519531 33.691406 135.671875 C 33.875 133.820312 34.101562 131.976562 34.375 130.136719 C 34.648438 128.296875 34.964844 126.464844 35.328125 124.640625 C 35.691406 122.816406 36.097656 121.003906 36.550781 119.199219 C 37.003906 117.394531 37.5 115.605469 38.039062 113.824219 C 38.578125 112.046875 39.160156 110.28125 39.789062 108.527344 C 40.414062 106.777344 41.082031 105.042969 41.796875 103.324219 C 42.507812 101.609375 43.261719 99.90625 44.054688 98.226562 C 44.851562 96.546875 45.6875 94.886719 46.5625 93.246094 C 47.4375 91.605469 48.355469 89.988281 49.3125 88.394531 C 50.269531 86.796875 51.261719 85.226562 52.296875 83.679688 C 53.328125 82.136719 54.398438 80.617188 55.507812 79.121094 C 56.613281 77.628906 57.757812 76.164062 58.9375 74.726562 C 60.117188 73.289062 61.332031 71.878906 62.582031 70.503906 C 63.828125 69.125 65.109375 67.777344 66.425781 66.464844 C 67.742188 65.148438 69.085938 63.867188 70.464844 62.617188 C 71.84375 61.367188 73.25 60.15625 74.6875 58.976562 C 76.125 57.796875 77.589844 56.652344 79.085938 55.542969 C 80.578125 54.4375 82.097656 53.367188 83.644531 52.332031 C 85.191406 51.300781 86.761719 50.304688 88.355469 49.347656 C 89.953125 48.394531 91.570312 47.476562 93.207031 46.601562 C 94.847656 45.722656 96.507812 44.886719 98.191406 44.09375 C 99.871094 43.296875 101.570312 42.542969 103.289062 41.832031 C 105.007812 41.121094 106.742188 40.453125 108.492188 39.824219 C 110.242188 39.199219 112.007812 38.617188 113.789062 38.074219 C 115.566406 37.535156 117.359375 37.039062 119.164062 36.589844 C 120.964844 36.136719 122.78125 35.730469 124.605469 35.367188 C 126.429688 35.003906 128.257812 34.6875 130.097656 34.414062 C 131.9375 34.140625 133.785156 33.914062 135.632812 33.730469 C 137.484375 33.546875 139.339844 33.410156 141.195312 33.320312 C 143.054688 33.230469 144.910156 33.183594 146.769531 33.183594 C 148.628906 33.183594 150.488281 33.230469 152.347656 33.320312 C 154.203125 33.410156 156.058594 33.546875 157.910156 33.730469 C 159.757812 33.914062 161.605469 34.140625 163.445312 34.414062 C 165.28125 34.6875 167.113281 35.003906 168.9375 35.367188 C 170.761719 35.730469 172.574219 36.136719 174.378906 36.589844 C 176.183594 37.039062 177.976562 37.535156 179.753906 38.074219 C 181.535156 38.617188 183.300781 39.199219 185.050781 39.824219 C 186.800781 40.453125 188.535156 41.121094 190.253906 41.832031 C 191.972656 42.542969 193.671875 43.296875 195.351562 44.09375 C 197.03125 44.886719 198.695312 45.722656 200.332031 46.601562 C 201.972656 47.476562 203.589844 48.394531 205.1875 49.347656 C 206.78125 50.304688 208.351562 51.300781 209.898438 52.332031 C 211.445312 53.367188 212.964844 54.4375 214.457031 55.542969 C 215.949219 56.652344 217.417969 57.796875 218.855469 58.976562 C 220.292969 60.15625 221.699219 61.367188 223.078125 62.617188 C 224.453125 63.867188 225.800781 65.148438 227.117188 66.464844 C 228.429688 67.777344 229.714844 69.125 230.960938 70.503906 C 232.210938 71.878906 233.425781 73.289062 234.605469 74.726562 C 235.785156 76.164062 236.929688 77.628906 238.035156 79.121094 C 239.144531 80.617188 240.214844 82.136719 241.246094 83.679688 C 242.28125 85.226562 243.273438 86.796875 244.230469 88.394531 C 245.1875 89.988281 246.101562 91.605469 246.980469 93.246094 C 247.855469 94.886719 248.691406 96.546875 249.488281 98.226562 C 250.28125 99.90625 251.035156 101.609375 251.746094 103.324219 C 252.457031 105.042969 253.128906 106.777344 253.753906 108.527344 C 254.378906 110.28125 254.964844 112.046875 255.503906 113.824219 C 256.042969 115.605469 256.539062 117.394531 256.992188 119.199219 C 257.441406 121.003906 257.851562 122.816406 258.210938 124.640625 C 258.574219 126.464844 258.894531 128.296875 259.167969 130.136719 C 259.4375 131.976562 259.667969 133.820312 259.847656 135.671875 C 260.03125 137.519531 260.167969 139.375 260.257812 141.234375 C 260.351562 143.089844 260.394531 144.949219 260.394531 146.808594 Z M 260.394531 146.808594 " fill-opacity="1" fill-rule="nonzero"/></g><g clip-path="url(#736f36a203)"><g clip-path="url(#b25d8c79cf)"><g clip-path="url(#6fc379894d)"><g clip-path="url(#7d738c2cdf)"><path fill="#000000" d="M 204.34375 53.304688 C 205.910156 54.246094 207.453125 55.226562 208.972656 56.246094 C 210.492188 57.261719 211.988281 58.316406 213.453125 59.410156 C 214.921875 60.5 216.363281 61.625 217.773438 62.789062 C 219.1875 63.949219 220.570312 65.148438 221.921875 66.378906 C 223.277344 67.605469 224.597656 68.871094 225.890625 70.164062 C 227.179688 71.460938 228.441406 72.785156 229.667969 74.140625 C 230.894531 75.5 232.085938 76.886719 233.242188 78.300781 C 234.402344 79.714844 235.523438 81.160156 236.613281 82.628906 C 237.699219 84.097656 238.75 85.59375 239.765625 87.117188 C 240.777344 88.640625 241.753906 90.183594 242.691406 91.753906 C 243.628906 93.324219 244.53125 94.917969 245.390625 96.53125 C 246.25 98.144531 247.070312 99.78125 247.847656 101.433594 C 248.628906 103.089844 249.367188 104.761719 250.066406 106.453125 C 250.761719 108.140625 251.417969 109.847656 252.03125 111.570312 C 252.644531 113.292969 253.21875 115.03125 253.746094 116.78125 C 254.273438 118.53125 254.757812 120.296875 255.203125 122.070312 C 255.644531 123.84375 256.042969 125.628906 256.394531 127.421875 C 256.75 129.21875 257.058594 131.019531 257.328125 132.828125 C 257.59375 134.636719 257.8125 136.453125 257.992188 138.273438 C 258.167969 140.09375 258.300781 141.917969 258.386719 143.746094 C 258.472656 145.570312 258.515625 147.398438 258.515625 149.226562 C 258.511719 151.054688 258.464844 152.882812 258.371094 154.710938 C 258.28125 156.539062 258.140625 158.359375 257.960938 160.179688 C 257.777344 162 257.554688 163.816406 257.28125 165.625 C 257.011719 167.433594 256.695312 169.234375 256.335938 171.027344 C 255.976562 172.820312 255.574219 174.601562 255.128906 176.375 C 254.679688 178.148438 254.191406 179.910156 253.65625 181.660156 C 253.125 183.410156 252.550781 185.144531 251.929688 186.867188 C 251.3125 188.585938 250.652344 190.292969 249.949219 191.980469 C 249.246094 193.667969 248.503906 195.339844 247.71875 196.992188 C 246.9375 198.644531 246.113281 200.277344 245.246094 201.886719 C 244.382812 203.5 243.480469 205.089844 242.539062 206.65625 C 241.59375 208.226562 240.613281 209.769531 239.597656 211.289062 C 238.578125 212.804688 237.523438 214.300781 236.433594 215.765625 C 235.339844 217.234375 234.214844 218.675781 233.050781 220.085938 C 231.890625 221.5 230.695312 222.882812 229.464844 224.234375 C 228.234375 225.589844 226.972656 226.910156 225.675781 228.203125 C 224.382812 229.496094 223.054688 230.753906 221.699219 231.980469 C 220.34375 233.207031 218.957031 234.398438 217.539062 235.554688 C 216.125 236.714844 214.683594 237.835938 213.210938 238.925781 C 211.742188 240.011719 210.246094 241.0625 208.722656 242.078125 C 207.203125 243.089844 205.65625 244.066406 204.085938 245.003906 C 202.515625 245.945312 200.921875 246.84375 199.308594 247.703125 C 197.695312 248.5625 196.0625 249.382812 194.40625 250.164062 C 192.753906 250.941406 191.078125 251.679688 189.390625 252.378906 C 187.699219 253.074219 185.992188 253.730469 184.269531 254.34375 C 182.546875 254.960938 180.808594 255.53125 179.058594 256.058594 C 177.308594 256.585938 175.546875 257.074219 173.769531 257.515625 C 171.996094 257.957031 170.210938 258.355469 168.417969 258.710938 C 166.625 259.0625 164.820312 259.375 163.011719 259.640625 C 161.203125 259.90625 159.386719 260.125 157.566406 260.304688 C 155.746094 260.480469 153.921875 260.613281 152.097656 260.699219 C 150.269531 260.785156 148.441406 260.828125 146.613281 260.828125 C 144.785156 260.824219 142.957031 260.777344 141.128906 260.683594 C 139.304688 260.59375 137.480469 260.457031 135.660156 260.273438 C 133.839844 260.09375 132.027344 259.867188 130.21875 259.59375 C 128.410156 259.324219 126.609375 259.007812 124.816406 258.652344 C 123.019531 258.292969 121.238281 257.886719 119.464844 257.441406 C 117.691406 256.996094 115.929688 256.503906 114.179688 255.972656 C 112.429688 255.4375 110.695312 254.863281 108.972656 254.242188 C 107.253906 253.625 105.546875 252.964844 103.859375 252.261719 C 102.171875 251.5625 100.5 250.816406 98.847656 250.035156 C 97.195312 249.25 95.5625 248.425781 93.953125 247.5625 C 92.339844 246.695312 90.75 245.792969 89.183594 244.851562 C 87.617188 243.910156 86.074219 242.929688 84.554688 241.910156 C 83.035156 240.890625 81.539062 239.835938 80.074219 238.746094 C 78.605469 237.652344 77.167969 236.527344 75.753906 235.367188 C 74.34375 234.203125 72.960938 233.007812 71.605469 231.777344 C 70.253906 230.546875 68.929688 229.285156 67.636719 227.988281 C 66.347656 226.695312 65.085938 225.367188 63.863281 224.011719 C 62.636719 222.65625 61.441406 221.269531 60.285156 219.855469 C 59.125 218.4375 58.003906 216.996094 56.914062 215.527344 C 55.828125 214.054688 54.777344 212.558594 53.761719 211.035156 C 52.75 209.515625 51.773438 207.96875 50.835938 206.398438 C 49.898438 204.828125 49 203.238281 48.136719 201.621094 C 47.277344 200.007812 46.457031 198.375 45.679688 196.71875 C 44.898438 195.066406 44.160156 193.394531 43.460938 191.703125 C 42.765625 190.011719 42.109375 188.304688 41.496094 186.582031 C 40.882812 184.859375 40.3125 183.125 39.78125 181.371094 C 39.253906 179.621094 38.769531 177.859375 38.328125 176.085938 C 37.882812 174.308594 37.484375 172.523438 37.132812 170.730469 C 36.777344 168.9375 36.46875 167.132812 36.203125 165.324219 C 35.933594 163.515625 35.714844 161.699219 35.539062 159.878906 C 35.359375 158.058594 35.226562 156.238281 35.140625 154.410156 C 35.054688 152.582031 35.011719 150.753906 35.015625 148.925781 C 35.015625 147.097656 35.0625 145.269531 35.15625 143.441406 C 35.25 141.617188 35.386719 139.792969 35.566406 137.972656 C 35.75 136.152344 35.976562 134.339844 36.246094 132.53125 C 36.515625 130.722656 36.832031 128.921875 37.191406 127.128906 C 37.550781 125.335938 37.953125 123.550781 38.398438 121.777344 C 38.847656 120.003906 39.335938 118.242188 39.871094 116.492188 C 40.402344 114.746094 40.980469 113.007812 41.597656 111.289062 C 42.214844 109.566406 42.875 107.863281 43.578125 106.171875 C 44.28125 104.484375 45.023438 102.8125 45.808594 101.160156 C 46.589844 99.507812 47.414062 97.878906 48.28125 96.265625 C 49.144531 94.652344 50.046875 93.0625 50.992188 91.496094 C 51.933594 89.929688 52.914062 88.386719 53.929688 86.867188 C 54.949219 85.347656 56.003906 83.855469 57.09375 82.386719 C 58.1875 80.917969 59.3125 79.480469 60.476562 78.066406 C 61.636719 76.65625 62.832031 75.273438 64.0625 73.917969 C 65.292969 72.566406 66.554688 71.242188 67.851562 69.953125 C 69.144531 68.660156 70.472656 67.402344 71.828125 66.175781 C 73.1875 64.949219 74.570312 63.757812 75.988281 62.597656 C 77.402344 61.441406 78.84375 60.316406 80.316406 59.230469 C 81.785156 58.140625 83.28125 57.089844 84.804688 56.078125 C 86.328125 55.0625 87.871094 54.085938 89.441406 53.148438 C 91.011719 52.210938 92.605469 51.3125 94.21875 50.453125 C 95.832031 49.589844 97.464844 48.773438 99.121094 47.992188 C 100.773438 47.210938 102.449219 46.472656 104.136719 45.777344 C 105.828125 45.078125 107.535156 44.421875 109.257812 43.808594 C 110.980469 43.195312 112.71875 42.625 114.46875 42.09375 C 116.21875 41.566406 117.980469 41.082031 119.757812 40.640625 C 121.53125 40.199219 123.316406 39.800781 125.109375 39.445312 C 126.90625 39.089844 128.707031 38.78125 130.515625 38.515625 C 132.324219 38.25 134.140625 38.027344 135.960938 37.851562 C 137.78125 37.671875 139.605469 37.542969 141.429688 37.453125 C 143.257812 37.367188 145.085938 37.324219 146.914062 37.328125 C 148.742188 37.328125 150.570312 37.378906 152.398438 37.46875 C 154.222656 37.5625 156.046875 37.699219 157.867188 37.878906 C 159.6875 38.0625 161.5 38.289062 163.308594 38.558594 C 165.117188 38.828125 166.917969 39.144531 168.714844 39.503906 C 170.507812 39.863281 172.289062 40.265625 174.0625 40.710938 C 175.835938 41.160156 177.597656 41.648438 179.347656 42.183594 C 181.097656 42.714844 182.832031 43.292969 184.554688 43.910156 C 186.273438 44.527344 187.980469 45.1875 189.667969 45.890625 C 191.355469 46.59375 193.027344 47.335938 194.679688 48.121094 C 196.332031 48.90625 197.964844 49.730469 199.574219 50.59375 C 201.1875 51.457031 202.777344 52.359375 204.34375 53.304688 Z M 204.34375 53.304688 " fill-opacity="1" fill-rule="nonzero"/></g></g></g></g><g clip-path="url(#e4db1c6aff)"><path fill="#000000" d="M 260.167969 146.769531 C 260.167969 148.628906 260.125 150.484375 260.03125 152.34375 C 259.941406 154.199219 259.804688 156.054688 259.621094 157.90625 C 259.441406 159.753906 259.210938 161.601562 258.9375 163.441406 C 258.667969 165.28125 258.347656 167.109375 257.984375 168.933594 C 257.625 170.757812 257.214844 172.574219 256.765625 174.375 C 256.3125 176.179688 255.816406 177.972656 255.277344 179.75 C 254.738281 181.53125 254.152344 183.296875 253.527344 185.046875 C 252.902344 186.796875 252.230469 188.53125 251.519531 190.25 C 250.808594 191.96875 250.054688 193.667969 249.261719 195.347656 C 248.464844 197.03125 247.628906 198.691406 246.753906 200.332031 C 245.875 201.96875 244.960938 203.585938 244.003906 205.183594 C 243.046875 206.777344 242.054688 208.347656 241.019531 209.894531 C 239.988281 211.441406 238.917969 212.960938 237.808594 214.453125 C 236.699219 215.949219 235.558594 217.414062 234.378906 218.851562 C 233.199219 220.289062 231.984375 221.695312 230.734375 223.074219 C 229.484375 224.453125 228.203125 225.796875 226.890625 227.113281 C 225.574219 228.429688 224.226562 229.710938 222.851562 230.957031 C 221.472656 232.207031 220.066406 233.421875 218.628906 234.601562 C 217.191406 235.78125 215.722656 236.925781 214.230469 238.03125 C 212.738281 239.140625 211.21875 240.210938 209.671875 241.242188 C 208.125 242.277344 206.554688 243.269531 204.960938 244.226562 C 203.363281 245.183594 201.746094 246.097656 200.105469 246.976562 C 198.464844 247.851562 196.804688 248.6875 195.125 249.484375 C 193.445312 250.277344 191.746094 251.03125 190.027344 251.742188 C 188.308594 252.457031 186.574219 253.125 184.824219 253.75 C 183.074219 254.378906 181.308594 254.960938 179.527344 255.5 C 177.75 256.039062 175.957031 256.535156 174.152344 256.988281 C 172.347656 257.441406 170.535156 257.847656 168.710938 258.210938 C 166.886719 258.574219 165.054688 258.890625 163.214844 259.164062 C 161.378906 259.4375 159.53125 259.664062 157.679688 259.847656 C 155.832031 260.027344 153.976562 260.164062 152.121094 260.257812 C 150.261719 260.347656 148.402344 260.394531 146.542969 260.394531 C 144.683594 260.394531 142.828125 260.347656 140.96875 260.257812 C 139.113281 260.164062 137.257812 260.027344 135.40625 259.847656 C 133.554688 259.664062 131.710938 259.4375 129.871094 259.164062 C 128.03125 258.890625 126.199219 258.574219 124.378906 258.210938 C 122.554688 257.847656 120.738281 257.441406 118.9375 256.988281 C 117.132812 256.535156 115.339844 256.039062 113.5625 255.5 C 111.78125 254.960938 110.015625 254.378906 108.265625 253.75 C 106.515625 253.125 104.78125 252.457031 103.0625 251.742188 C 101.34375 251.03125 99.644531 250.277344 97.964844 249.484375 C 96.28125 248.6875 94.621094 247.851562 92.980469 246.976562 C 91.34375 246.097656 89.722656 245.183594 88.128906 244.226562 C 86.535156 243.269531 84.964844 242.277344 83.417969 241.242188 C 81.871094 240.210938 80.351562 239.140625 78.859375 238.03125 C 77.363281 236.925781 75.898438 235.78125 74.460938 234.601562 C 73.023438 233.421875 71.617188 232.207031 70.238281 230.957031 C 68.859375 229.710938 67.515625 228.429688 66.199219 227.113281 C 64.882812 225.796875 63.601562 224.453125 62.355469 223.074219 C 61.105469 221.695312 59.890625 220.289062 58.710938 218.851562 C 57.53125 217.414062 56.386719 215.949219 55.28125 214.453125 C 54.171875 212.960938 53.101562 211.441406 52.070312 209.894531 C 51.035156 208.347656 50.039062 206.777344 49.085938 205.183594 C 48.128906 203.585938 47.210938 201.96875 46.335938 200.332031 C 45.460938 198.691406 44.625 197.03125 43.828125 195.347656 C 43.035156 193.667969 42.28125 191.96875 41.570312 190.25 C 40.855469 188.53125 40.1875 186.796875 39.5625 185.046875 C 38.933594 183.296875 38.351562 181.53125 37.8125 179.75 C 37.273438 177.972656 36.777344 176.179688 36.324219 174.375 C 35.871094 172.574219 35.464844 170.757812 35.101562 168.933594 C 34.738281 167.109375 34.421875 165.28125 34.148438 163.441406 C 33.875 161.601562 33.648438 159.753906 33.464844 157.90625 C 33.285156 156.054688 33.148438 154.199219 33.054688 152.34375 C 32.964844 150.484375 32.917969 148.628906 32.917969 146.769531 C 32.917969 144.910156 32.964844 143.050781 33.054688 141.191406 C 33.148438 139.335938 33.285156 137.480469 33.464844 135.628906 C 33.648438 133.78125 33.875 131.933594 34.148438 130.09375 C 34.421875 128.257812 34.738281 126.425781 35.101562 124.601562 C 35.464844 122.777344 35.871094 120.964844 36.324219 119.160156 C 36.777344 117.355469 37.273438 115.5625 37.8125 113.785156 C 38.351562 112.003906 38.933594 110.238281 39.5625 108.488281 C 40.1875 106.738281 40.855469 105.003906 41.570312 103.285156 C 42.28125 101.566406 43.035156 99.867188 43.828125 98.1875 C 44.625 96.507812 45.460938 94.84375 46.335938 93.207031 C 47.210938 91.566406 48.128906 89.949219 49.085938 88.351562 C 50.039062 86.757812 51.035156 85.1875 52.070312 83.640625 C 53.101562 82.09375 54.171875 80.574219 55.28125 79.082031 C 56.386719 77.589844 57.53125 76.121094 58.710938 74.683594 C 59.890625 73.246094 61.105469 71.839844 62.355469 70.460938 C 63.601562 69.085938 64.882812 67.738281 66.199219 66.421875 C 67.515625 65.109375 68.859375 63.828125 70.238281 62.578125 C 71.617188 61.328125 73.023438 60.113281 74.460938 58.933594 C 75.898438 57.753906 77.363281 56.609375 78.859375 55.503906 C 80.351562 54.394531 81.871094 53.324219 83.417969 52.292969 C 84.964844 51.257812 86.535156 50.265625 88.128906 49.308594 C 89.722656 48.351562 91.34375 47.4375 92.980469 46.558594 C 94.621094 45.683594 96.28125 44.847656 97.964844 44.050781 C 99.644531 43.257812 101.34375 42.503906 103.0625 41.792969 C 104.78125 41.082031 106.515625 40.410156 108.265625 39.785156 C 110.015625 39.160156 111.78125 38.574219 113.5625 38.035156 C 115.339844 37.496094 117.132812 37 118.9375 36.546875 C 120.738281 36.097656 122.554688 35.6875 124.378906 35.328125 C 126.199219 34.964844 128.03125 34.644531 129.871094 34.371094 C 131.710938 34.101562 133.554688 33.871094 135.40625 33.691406 C 137.257812 33.507812 139.113281 33.371094 140.96875 33.28125 C 142.828125 33.1875 144.683594 33.144531 146.542969 33.144531 C 148.402344 33.144531 150.261719 33.1875 152.121094 33.28125 C 153.976562 33.371094 155.832031 33.507812 157.679688 33.691406 C 159.53125 33.871094 161.378906 34.101562 163.214844 34.371094 C 165.054688 34.644531 166.886719 34.964844 168.710938 35.328125 C 170.535156 35.6875 172.347656 36.097656 174.152344 36.546875 C 175.957031 37 177.75 37.496094 179.527344 38.035156 C 181.308594 38.574219 183.074219 39.160156 184.824219 39.785156 C 186.574219 40.410156 188.308594 41.082031 190.027344 41.792969 C 191.746094 42.503906 193.445312 43.257812 195.125 44.050781 C 196.804688 44.847656 198.464844 45.683594 200.105469 46.558594 C 201.746094 47.4375 203.363281 48.351562 204.960938 49.308594 C 206.554688 50.265625 208.125 51.257812 209.671875 52.292969 C 211.21875 53.324219 212.738281 54.394531 214.230469 55.503906 C 215.722656 56.609375 217.191406 57.753906 218.628906 58.933594 C 220.066406 60.113281 221.472656 61.328125 222.851562 62.578125 C 224.226562 63.828125 225.574219 65.109375 226.890625 66.421875 C 228.203125 67.738281 229.484375 69.085938 230.734375 70.460938 C 231.984375 71.839844 233.199219 73.246094 234.378906 74.683594 C 235.558594 76.121094 236.699219 77.589844 237.808594 79.082031 C 238.917969 80.574219 239.988281 82.09375 241.019531 83.640625 C 242.054688 85.1875 243.046875 86.757812 244.003906 88.351562 C 244.960938 89.949219 245.875 91.566406 246.753906 93.207031 C 247.628906 94.84375 248.464844 96.507812 249.261719 98.1875 C 250.054688 99.867188 250.808594 101.566406 251.519531 103.285156 C 252.230469 105.003906 252.902344 106.738281 253.527344 108.488281 C 254.152344 110.238281 254.738281 112.003906 255.277344 113.785156 C 255.816406 115.5625 256.3125 117.355469 256.765625 119.160156 C 257.214844 120.964844 257.625 122.777344 257.984375 124.601562 C 258.347656 126.425781 258.667969 128.257812 258.941406 130.09375 C 259.210938 131.933594 259.441406 133.78125 259.621094 135.628906 C 259.804688 137.480469 259.941406 139.335938 260.03125 141.191406 C 260.125 143.050781 260.167969 144.910156 260.167969 146.769531 Z M 260.167969 146.769531 " fill-opacity="1" fill-rule="nonzero"/></g><g clip-path="url(#9d37ca1dbc)"><g clip-path="url(#09f41c2661)"><g clip-path="url(#c3aaa47cbe)"><g clip-path="url(#14b90c4d34)"><path fill="#000000" d="M 246.417969 186.980469 C 245.359375 188.738281 244.214844 190.4375 242.988281 192.082031 C 241.761719 193.726562 240.457031 195.304688 239.078125 196.820312 C 237.695312 198.335938 236.242188 199.78125 234.71875 201.15625 C 233.195312 202.527344 231.609375 203.824219 229.957031 205.039062 C 228.304688 206.257812 226.601562 207.390625 224.835938 208.441406 C 223.074219 209.488281 221.265625 210.449219 219.410156 211.320312 C 217.554688 212.195312 215.660156 212.972656 213.726562 213.65625 C 211.792969 214.34375 209.828125 214.933594 207.839844 215.425781 C 205.847656 215.917969 203.835938 216.3125 201.808594 216.605469 C 199.777344 216.902344 197.738281 217.097656 195.691406 217.191406 C 193.640625 217.289062 191.59375 217.28125 189.542969 217.175781 C 187.496094 217.070312 185.457031 216.863281 183.429688 216.554688 C 181.402344 216.25 179.394531 215.84375 177.40625 215.339844 C 175.417969 214.835938 173.460938 214.234375 171.53125 213.539062 C 169.601562 212.84375 167.710938 212.054688 165.859375 211.171875 C 164.007812 210.289062 162.203125 209.316406 160.445312 208.257812 C 158.691406 207.199219 156.992188 206.054688 155.347656 204.828125 C 153.703125 203.601562 152.121094 202.300781 150.605469 200.917969 C 149.089844 199.535156 147.644531 198.082031 146.273438 196.558594 C 144.898438 195.035156 143.605469 193.449219 142.386719 191.796875 C 141.171875 190.148438 140.039062 188.441406 138.988281 186.679688 C 137.9375 184.917969 136.976562 183.105469 136.105469 181.25 C 135.234375 179.394531 134.457031 177.5 133.769531 175.566406 C 133.085938 173.632812 132.496094 171.671875 132.003906 169.679688 C 131.511719 167.6875 131.117188 165.679688 130.820312 163.648438 C 130.527344 161.617188 130.332031 159.578125 130.234375 157.53125 C 130.140625 155.480469 130.148438 153.433594 130.253906 151.386719 C 130.359375 149.335938 130.566406 147.296875 130.871094 145.269531 C 131.179688 143.242188 131.585938 141.234375 132.089844 139.246094 C 132.59375 137.257812 133.191406 135.300781 133.890625 133.371094 C 134.585938 131.441406 135.375 129.550781 136.257812 127.699219 C 137.140625 125.847656 138.109375 124.042969 139.167969 122.289062 C 140.230469 120.53125 141.371094 118.832031 142.597656 117.1875 C 143.824219 115.542969 145.128906 113.964844 146.511719 112.449219 C 147.890625 110.929688 149.34375 109.488281 150.867188 108.113281 C 152.390625 106.742188 153.980469 105.445312 155.628906 104.226562 C 157.28125 103.011719 158.988281 101.878906 160.75 100.828125 C 162.511719 99.777344 164.320312 98.820312 166.179688 97.945312 C 168.035156 97.074219 169.929688 96.296875 171.863281 95.609375 C 173.796875 94.925781 175.757812 94.335938 177.75 93.84375 C 179.738281 93.351562 181.75 92.957031 183.78125 92.660156 C 185.808594 92.367188 187.847656 92.171875 189.898438 92.078125 C 191.945312 91.980469 193.996094 91.988281 196.042969 92.09375 C 198.089844 92.199219 200.128906 92.40625 202.15625 92.714844 C 204.1875 93.019531 206.195312 93.425781 208.183594 93.929688 C 210.171875 94.433594 212.128906 95.035156 214.058594 95.730469 C 215.988281 96.425781 217.878906 97.214844 219.730469 98.097656 C 221.582031 98.980469 223.386719 99.949219 225.140625 101.011719 C 226.898438 102.070312 228.597656 103.210938 230.242188 104.4375 C 231.886719 105.664062 233.464844 106.96875 234.980469 108.351562 C 236.496094 109.734375 237.941406 111.1875 239.316406 112.710938 C 240.6875 114.234375 241.984375 115.820312 243.199219 117.472656 C 244.417969 119.121094 245.550781 120.828125 246.601562 122.589844 C 247.648438 124.351562 248.609375 126.164062 249.480469 128.019531 C 250.351562 129.875 251.132812 131.769531 251.816406 133.703125 C 252.503906 135.636719 253.09375 137.597656 253.585938 139.589844 C 254.078125 141.582031 254.472656 143.589844 254.765625 145.621094 C 255.0625 147.648438 255.257812 149.6875 255.351562 151.738281 C 255.445312 153.785156 255.441406 155.835938 255.335938 157.882812 C 255.226562 159.933594 255.023438 161.96875 254.714844 164 C 254.410156 166.027344 254.003906 168.035156 253.5 170.023438 C 252.996094 172.011719 252.394531 173.96875 251.699219 175.898438 C 251 177.828125 250.210938 179.71875 249.332031 181.570312 C 248.449219 183.421875 247.476562 185.226562 246.417969 186.980469 Z M 246.417969 186.980469 " fill-opacity="1" fill-rule="nonzero"/></g></g></g></g><g clip-path="url(#8e0e02bc0b)"><g clip-path="url(#428a0898b7)"><g clip-path="url(#abbb826614)"><g clip-path="url(#1e6a79594f)"><path fill="#000000" d="M 208.324219 52.222656 C 209.839844 53.121094 211.332031 54.054688 212.800781 55.027344 C 214.269531 56 215.710938 57.007812 217.132812 58.050781 C 218.550781 59.09375 219.945312 60.171875 221.308594 61.285156 C 222.675781 62.394531 224.015625 63.539062 225.324219 64.71875 C 226.636719 65.894531 227.914062 67.101562 229.167969 68.34375 C 230.417969 69.582031 231.636719 70.851562 232.824219 72.152344 C 234.011719 73.453125 235.167969 74.78125 236.292969 76.136719 C 237.414062 77.496094 238.503906 78.878906 239.558594 80.289062 C 240.617188 81.699219 241.636719 83.132812 242.621094 84.59375 C 243.605469 86.054688 244.554688 87.539062 245.464844 89.046875 C 246.378906 90.550781 247.253906 92.082031 248.089844 93.628906 C 248.925781 95.179688 249.726562 96.75 250.484375 98.339844 C 251.246094 99.929688 251.964844 101.535156 252.644531 103.160156 C 253.328125 104.785156 253.96875 106.421875 254.566406 108.078125 C 255.167969 109.734375 255.726562 111.40625 256.246094 113.089844 C 256.765625 114.769531 257.242188 116.464844 257.675781 118.171875 C 258.113281 119.878906 258.507812 121.597656 258.855469 123.324219 C 259.207031 125.046875 259.515625 126.78125 259.78125 128.523438 C 260.046875 130.265625 260.269531 132.011719 260.453125 133.761719 C 260.632812 135.515625 260.769531 137.269531 260.863281 139.03125 C 260.957031 140.789062 261.007812 142.546875 261.015625 144.308594 C 261.023438 146.070312 260.988281 147.832031 260.90625 149.589844 C 260.828125 151.351562 260.707031 153.109375 260.542969 154.859375 C 260.375 156.613281 260.167969 158.363281 259.917969 160.105469 C 259.667969 161.851562 259.375 163.585938 259.035156 165.316406 C 258.699219 167.042969 258.324219 168.765625 257.902344 170.472656 C 257.480469 172.183594 257.019531 173.882812 256.515625 175.570312 C 256.011719 177.257812 255.464844 178.933594 254.878906 180.59375 C 254.292969 182.253906 253.667969 183.902344 253 185.53125 C 252.332031 187.160156 251.625 188.773438 250.878906 190.371094 C 250.132812 191.964844 249.347656 193.539062 248.523438 195.097656 C 247.699219 196.65625 246.839844 198.191406 245.941406 199.707031 C 245.042969 201.21875 244.105469 202.710938 243.132812 204.179688 C 242.160156 205.648438 241.152344 207.09375 240.109375 208.511719 C 239.066406 209.929688 237.988281 211.324219 236.878906 212.691406 C 235.765625 214.058594 234.621094 215.394531 233.445312 216.707031 C 232.269531 218.015625 231.058594 219.296875 229.820312 220.546875 C 228.578125 221.796875 227.308594 223.015625 226.007812 224.207031 C 224.707031 225.394531 223.378906 226.550781 222.023438 227.671875 C 220.667969 228.796875 219.285156 229.886719 217.875 230.941406 C 216.460938 231.996094 215.027344 233.015625 213.566406 234 C 212.105469 234.984375 210.625 235.933594 209.117188 236.847656 C 207.609375 237.757812 206.082031 238.632812 204.53125 239.46875 C 202.980469 240.304688 201.414062 241.105469 199.824219 241.863281 C 198.234375 242.625 196.628906 243.34375 195.003906 244.027344 C 193.378906 244.707031 191.738281 245.347656 190.082031 245.949219 C 188.425781 246.550781 186.757812 247.109375 185.074219 247.628906 C 183.390625 248.144531 181.695312 248.621094 179.988281 249.058594 C 178.28125 249.492188 176.566406 249.886719 174.839844 250.238281 C 173.113281 250.589844 171.378906 250.898438 169.640625 251.164062 C 167.898438 251.429688 166.152344 251.652344 164.398438 251.832031 C 162.648438 252.011719 160.890625 252.148438 159.132812 252.242188 C 157.375 252.335938 155.613281 252.386719 153.851562 252.394531 C 152.089844 252.402344 150.332031 252.367188 148.570312 252.289062 C 146.8125 252.210938 145.054688 252.085938 143.300781 251.921875 C 141.546875 251.757812 139.800781 251.550781 138.054688 251.296875 C 136.3125 251.046875 134.574219 250.753906 132.847656 250.417969 C 131.117188 250.082031 129.398438 249.703125 127.6875 249.28125 C 125.976562 248.863281 124.277344 248.398438 122.589844 247.894531 C 120.902344 247.390625 119.230469 246.847656 117.566406 246.257812 C 115.90625 245.671875 114.261719 245.046875 112.632812 244.378906 C 111 243.710938 109.386719 243.003906 107.792969 242.257812 C 106.199219 241.511719 104.621094 240.726562 103.0625 239.90625 C 101.507812 239.082031 99.972656 238.21875 98.457031 237.320312 C 96.941406 236.421875 95.449219 235.484375 93.980469 234.511719 C 92.511719 233.542969 91.070312 232.535156 89.648438 231.492188 C 88.230469 230.449219 86.839844 229.371094 85.472656 228.257812 C 84.105469 227.148438 82.765625 226.003906 81.457031 224.824219 C 80.148438 223.648438 78.867188 222.4375 77.617188 221.199219 C 76.363281 219.960938 75.144531 218.6875 73.957031 217.390625 C 72.769531 216.089844 71.613281 214.761719 70.488281 213.402344 C 69.367188 212.046875 68.277344 210.664062 67.222656 209.253906 C 66.167969 207.84375 65.144531 206.40625 64.160156 204.949219 C 63.175781 203.488281 62.226562 202.003906 61.316406 200.496094 C 60.402344 198.988281 59.53125 197.460938 58.691406 195.910156 C 57.855469 194.363281 57.058594 192.792969 56.296875 191.203125 C 55.539062 189.613281 54.816406 188.007812 54.136719 186.382812 C 53.453125 184.757812 52.8125 183.117188 52.214844 181.464844 C 51.613281 179.808594 51.054688 178.136719 50.535156 176.453125 C 50.015625 174.769531 49.539062 173.074219 49.105469 171.371094 C 48.667969 169.664062 48.277344 167.945312 47.925781 166.21875 C 47.574219 164.492188 47.265625 162.761719 47 161.019531 C 46.734375 159.277344 46.511719 157.53125 46.332031 155.78125 C 46.148438 154.027344 46.011719 152.273438 45.917969 150.511719 C 45.824219 148.753906 45.773438 146.992188 45.765625 145.234375 C 45.757812 143.472656 45.796875 141.710938 45.875 139.953125 C 45.953125 138.191406 46.074219 136.433594 46.238281 134.679688 C 46.40625 132.929688 46.613281 131.179688 46.863281 129.4375 C 47.113281 127.691406 47.410156 125.957031 47.746094 124.226562 C 48.082031 122.5 48.460938 120.777344 48.878906 119.070312 C 49.300781 117.359375 49.761719 115.660156 50.265625 113.972656 C 50.769531 112.285156 51.316406 110.609375 51.902344 108.949219 C 52.488281 107.289062 53.117188 105.640625 53.78125 104.011719 C 54.449219 102.382812 55.15625 100.769531 55.902344 99.171875 C 56.648438 97.578125 57.433594 96 58.257812 94.445312 C 59.082031 92.886719 59.941406 91.351562 60.839844 89.835938 C 61.742188 88.324219 62.675781 86.832031 63.648438 85.363281 C 64.621094 83.894531 65.628906 82.449219 66.671875 81.03125 C 67.714844 79.609375 68.792969 78.21875 69.902344 76.851562 C 71.015625 75.484375 72.160156 74.148438 73.335938 72.835938 C 74.515625 71.527344 75.722656 70.246094 76.964844 68.996094 C 78.203125 67.746094 79.472656 66.527344 80.773438 65.335938 C 82.074219 64.148438 83.402344 62.992188 84.757812 61.871094 C 86.113281 60.746094 87.5 59.65625 88.910156 58.601562 C 90.320312 57.546875 91.753906 56.527344 93.214844 55.542969 C 94.675781 54.558594 96.160156 53.609375 97.664062 52.695312 C 99.171875 51.785156 100.699219 50.910156 102.25 50.074219 C 103.800781 49.234375 105.371094 48.4375 106.957031 47.675781 C 108.546875 46.917969 110.15625 46.199219 111.777344 45.515625 C 113.402344 44.835938 115.042969 44.195312 116.699219 43.59375 C 118.355469 42.992188 120.023438 42.433594 121.707031 41.914062 C 123.390625 41.398438 125.085938 40.921875 126.792969 40.484375 C 128.5 40.050781 130.214844 39.65625 131.941406 39.304688 C 133.667969 38.953125 135.402344 38.644531 137.144531 38.378906 C 138.882812 38.113281 140.628906 37.890625 142.382812 37.710938 C 144.136719 37.53125 145.890625 37.394531 147.648438 37.300781 C 149.40625 37.207031 151.167969 37.15625 152.929688 37.148438 C 154.691406 37.140625 156.453125 37.175781 158.210938 37.253906 C 159.96875 37.332031 161.726562 37.457031 163.480469 37.621094 C 165.234375 37.785156 166.984375 37.992188 168.726562 38.246094 C 170.46875 38.496094 172.207031 38.789062 173.933594 39.125 C 175.664062 39.460938 177.382812 39.839844 179.09375 40.261719 C 180.804688 40.679688 182.503906 41.144531 184.191406 41.648438 C 185.878906 42.152344 187.554688 42.695312 189.214844 43.28125 C 190.875 43.871094 192.519531 44.496094 194.152344 45.164062 C 195.78125 45.832031 197.394531 46.535156 198.988281 47.28125 C 200.585938 48.03125 202.160156 48.8125 203.71875 49.636719 C 205.273438 50.460938 206.808594 51.324219 208.324219 52.222656 Z M 208.324219 52.222656 " fill-opacity="1" fill-rule="nonzero"/></g></g></g></g></svg>
