<svg xmlns="http://www.w3.org/2000/svg" xmlns:xlink="http://www.w3.org/1999/xlink" width="400" zoomAndPan="magnify" viewBox="0 0 300 299.999988" height="400" preserveAspectRatio="xMidYMid meet" version="1.0"><path fill="#ffffff" d="M 149.925781 0 C 67.050781 0 0 67.125 0 150 C 0 232.875 67.050781 300 149.925781 300 C 232.800781 300 300 232.875 300 150 C 300 67.125 232.800781 0 149.925781 0 Z M 150 270 C 83.699219 270 30 216.300781 30 150 C 30 83.699219 83.699219 30 150 30 C 216.300781 30 270 83.699219 270 150 C 270 216.300781 216.300781 270 150 270 Z M 150 270 " fill-opacity="0.9" fill-rule="nonzero"/><path fill="#ffffff" d="M 157.5 75 L 135 75 L 135 165 L 213.675781 212.25 L 225 193.800781 L 157.5 153.75 Z M 157.5 75 " fill-opacity="0.9" fill-rule="nonzero"/></svg>
